HIERARCHY
ROOT SpineBase
{
  OFFSET 0.000000 0.000000 0.000000
  CHANNELS 6 Xposition Yposition Zposition Zrotation Xrotation Yrotation
  JOINT SpineMid
  {
    OFFSET 0.000000 28.373676 0.000000
    CHANNELS 3 Zrotation Xrotation Yrotation
    JOINT SpineShoulder
    {
      OFFSET -0.123765 21.102461 -0.930529
      CHANNELS 3 Zrotation Xrotation Yrotation
      JOINT Neck
      {
        OFFSET 0.004681 6.957213 -0.594416
        CHANNELS 3 Zrotation Xrotation Yrotation
        JOINT Head
        {
          OFFSET -1.331930 13.497112 -0.998861
          CHANNELS 3 Zrotation Xrotation Yrotation
          End Site
          {
            OFFSET 0 0 0
          }
        }
      }
      JOINT ShoulderLeft
      {
        OFFSET -16.540332 -5.016944 2.717663
        CHANNELS 3 Zrotation Xrotation Yrotation
        JOINT ElbowLeft
        {
          OFFSET -0.607578 -27.095121 2.578610
          CHANNELS 3 Zrotation Xrotation Yrotation
          JOINT WristLeft
          {
            OFFSET 1.306814 -21.364857 -4.501231
            CHANNELS 3 Zrotation Xrotation Yrotation
            JOINT HandLeft
            {
              OFFSET 0.753668 -3.192921 -0.215020
              CHANNELS 3 Zrotation Xrotation Yrotation
              JOINT HandTipLeft
              {
                OFFSET 2.283323 -6.396351 -1.003464
                CHANNELS 3 Zrotation Xrotation Yrotation
                End Site
                {
                  OFFSET 0 0 0
                }
              }
              JOINT ThumbLeft
              {
                OFFSET 3.190045 0.119568 -4.038857
                CHANNELS 3 Zrotation Xrotation Yrotation
                End Site
                {
                  OFFSET 0 0 0
                }
              }
            }
          }
        }
      }
      JOINT ShoulderRight
      {
        OFFSET 14.224320 -4.437593 -7.676647
        CHANNELS 3 Zrotation Xrotation Yrotation
        JOINT ElbowRight
        {
          OFFSET 3.943650 -25.079566 -0.635655
          CHANNELS 3 Zrotation Xrotation Yrotation
          JOINT WristRight
          {
            OFFSET 0.080375 -21.001293 -6.488815
            CHANNELS 3 Zrotation Xrotation Yrotation
            JOINT HandRight
            {
              OFFSET -1.475663 -5.366580 -0.142912
              CHANNELS 3 Zrotation Xrotation Yrotation
              JOINT HandTipRight
              {
                OFFSET -0.305067 -4.449214 0.216549
                CHANNELS 3 Zrotation Xrotation Yrotation
                End Site
                {
                  OFFSET 0 0 0
                }
              }
              JOINT ThumbRight
              {
                OFFSET -2.583496 1.104622 -1.166027
                CHANNELS 3 Zrotation Xrotation Yrotation
                End Site
                {
                  OFFSET 0 0 0
                }
              }
            }
          }
        }
      }
    }
  }
  JOINT HipLeft
  {
    OFFSET -6.103646 0.377192 -1.746961
    CHANNELS 3 Zrotation Xrotation Yrotation
    JOINT KneeLeft
    {
      OFFSET 6.740168 -30.227588 8.710292
      CHANNELS 3 Zrotation Xrotation Yrotation
      JOINT AnkleLeft
      {
        OFFSET 5.036787 -31.186105 8.122771
        CHANNELS 3 Zrotation Xrotation Yrotation
        JOINT FootLeft
        {
          OFFSET -1.076191 -6.142666 -8.078477
          CHANNELS 3 Zrotation Xrotation Yrotation
          End Site
          {
            OFFSET 0 0 0
          }
        }
      }
    }
  }
  JOINT HipRight
  {
    OFFSET 5.888418 0.794235 -5.123396
    CHANNELS 3 Zrotation Xrotation Yrotation
    JOINT KneeRight
    {
      OFFSET 4.922776 -28.699092 6.643458
      CHANNELS 3 Zrotation Xrotation Yrotation
      JOINT AnkleRight
      {
        OFFSET 4.119750 -33.222653 8.581750
        CHANNELS 3 Zrotation Xrotation Yrotation
        JOINT FootRight
        {
          OFFSET -3.004267 -6.010212 -4.092843
          CHANNELS 3 Zrotation Xrotation Yrotation
          End Site
          {
            OFFSET 0 0 0
          }
        }
      }
    }
  }
}
MOTION
Frames: 9
Frame Time: 0.033333
10.620141 85.173615 362.213827 -0.000000 0.000000 15.724870 -0.000000 0.000000 -15.724870 -0.000000 0.000000 0.000000 -0.000000 0.000000 0.000000 0.000000 0.000000 0.000000 -0.000000 0.000000 0.000000 -0.000000 0.000000 0.000000 -0.000000 0.000000 0.000000 -0.000000 0.000000 0.000000 0.000000 0.000000 0.000000 0.000000 0.000000 0.000000 -0.000000 0.000000 0.000000 -0.000000 0.000000 0.000000 -0.000000 0.000000 0.000000 -0.000000 0.000000 0.000000 0.000000 0.000000 0.000000 0.000000 0.000000 0.000000 -0.000000 0.000000 -15.724870 -0.000000 0.000000 0.000000 -0.000000 0.000000 0.000000 0.000000 0.000000 0.000000 -0.000000 0.000000 -15.724870 -0.000000 0.000000 0.000000 -0.000000 0.000000 0.000000 0.000000 0.000000 0.000000
10.625903 85.109203 362.194678 -0.025500 0.020398 15.585482 0.019082 -0.026499 -15.585473 -0.000000 0.000000 0.000000 -0.000000 0.000000 0.000000 0.000000 0.000000 0.000000 -0.000000 0.000000 0.000000 -0.000000 0.000000 0.000000 -0.000000 0.000000 0.000000 -3.922582 -0.203325 0.542857 0.000000 0.000000 0.000000 0.000000 0.000000 0.000000 -0.000000 0.000000 0.000000 -0.000000 0.000000 0.000000 0.707242 -0.713762 0.182178 0.312588 1.960061 -0.233382 0.000000 0.000000 0.000000 0.000000 0.000000 0.000000 0.019082 -0.026499 -15.585473 0.680000 -1.013583 0.019362 -0.340804 -4.712347 0.600899 0.000000 0.000000 0.000000 -0.535476 -0.657271 -15.802768 0.353352 1.657514 0.322215 -0.695066 10.354714 -4.867424 0.000000 0.000000 0.000000
10.631576 85.048980 362.177368 -0.045289 0.029261 15.473795 0.035841 -0.040283 -15.473771 -0.000000 0.000000 0.000000 -0.000000 0.000000 0.000000 0.000000 0.000000 0.000000 -0.000000 0.000000 0.000000 -0.000000 0.000000 0.000000 0.064914 -1.034959 -0.248204 -7.636613 0.470073 1.375702 0.000000 0.000000 0.000000 0.000000 0.000000 0.000000 -0.000000 0.000000 0.000000 -0.000000 0.000000 0.000000 1.501230 -1.338333 0.346933 0.462468 3.608486 -0.458011 0.000000 0.000000 0.000000 0.000000 0.000000 0.000000 0.177492 1.215835 -15.253307 1.377728 -3.030545 -0.153002 -0.768923 -7.834853 1.296284 0.000000 0.000000 0.000000 -0.917726 -1.167287 -15.856226 0.572672 2.966718 0.561708 -0.570921 17.580767 -8.369725 0.000000 0.000000 0.000000
10.637162 84.992946 362.161894 -0.059399 0.026638 15.390232 0.050199 -0.041447 -15.390200 -0.000000 0.000000 0.000000 -0.000000 0.000000 0.000000 0.000000 0.000000 0.000000 -0.000000 0.000000 0.000000 -0.000000 0.000000 0.000000 -0.097631 -1.677495 -0.391307 -10.742163 0.627764 2.020452 0.000000 0.000000 0.000000 0.000000 0.000000 0.000000 -0.000000 0.000000 0.000000 -0.000000 0.000000 0.000000 2.380802 -1.869960 0.492710 0.444412 4.941455 -0.658286 0.000000 0.000000 0.000000 0.000000 0.000000 0.000000 0.218173 1.645478 -15.100894 1.822147 -4.007727 -0.182776 -1.376299 -8.938144 2.024363 0.000000 0.000000 0.000000 -1.157256 -1.540323 -15.885938 0.670168 3.917995 0.722504 -0.151359 22.531472 -10.891538 0.000000 0.000000 0.000000
10.642661 84.941101 362.148259 -0.067855 0.012567 15.335112 0.062115 -0.030065 -15.335088 -0.000000 0.000000 0.000000 0.404950 -0.708524 -0.037417 0.000000 0.000000 0.000000 -0.000000 0.000000 0.000000 -0.878268 -0.256020 0.167576 0.453231 -2.171118 -0.724362 -13.219992 0.771077 2.613692 0.000000 0.000000 0.000000 0.000000 0.000000 0.000000 -0.000000 0.000000 0.000000 -0.000000 0.000000 0.000000 3.344253 -2.305466 0.617536 0.254254 5.956578 -0.820533 0.000000 0.000000 0.000000 0.000000 0.000000 0.000000 0.227121 1.938621 -15.007071 2.128605 -4.644995 -0.191868 -2.223508 -7.847875 2.750776 0.000000 0.000000 0.000000 -1.261032 -1.783640 -15.892572 0.654126 4.502684 0.806377 0.319034 25.962766 -12.683618 0.000000 0.000000 0.000000
10.648072 84.893445 362.136460 -0.070677 -0.012925 15.308656 0.071581 -0.006194 -15.308660 -0.000000 0.000000 0.000000 0.544548 -0.821865 -0.036863 0.000000 0.000000 0.000000 -0.000000 0.000000 0.000000 -0.999494 -0.376627 0.184486 0.061482 -2.926433 -0.932132 -14.970486 0.940187 3.144284 0.000000 0.000000 0.000000 0.000000 0.000000 0.000000 -0.000000 0.000000 0.000000 -0.000000 0.000000 0.000000 4.389301 -2.642302 0.719033 -0.110658 6.652255 -0.933342 0.000000 0.000000 0.000000 0.000000 0.000000 0.000000 0.205016 2.087578 -14.973087 2.306271 -4.949566 -0.184682 -3.326255 -4.608828 3.476842 0.000000 0.000000 0.000000 -1.232784 -1.901803 -15.876625 0.529245 4.714334 0.813515 0.734328 28.390291 -13.908375 0.000000 0.000000 0.000000
10.658832 84.842331 362.125128 -0.055723 -0.033484 15.274975 0.062576 0.017621 -15.275001 -0.000000 0.000000 0.000000 0.611445 -0.952150 -0.043582 0.000000 0.000000 0.000000 -0.000000 0.000000 0.000000 -1.054301 -0.470757 0.189275 -1.233573 -5.648065 -1.607000 -19.807210 1.446490 4.917386 0.000000 0.000000 0.000000 0.000000 0.000000 0.000000 -0.000000 0.000000 0.000000 -0.000000 0.000000 0.000000 5.605711 -2.956248 0.820022 -2.266559 9.019909 -1.134268 0.000000 0.000000 0.000000 0.000000 0.000000 0.000000 0.001682 1.636150 -15.068333 2.432534 -3.804721 0.036717 -6.630101 6.842115 5.288797 0.000000 0.000000 0.000000 -1.506462 -2.625811 -16.004798 1.102855 6.699361 1.206911 -0.655894 28.623371 -13.967892 0.000000 0.000000 0.000000
10.668153 84.799389 362.116710 -0.039696 -0.064028 15.277602 0.055164 0.051305 -15.277649 -0.000000 0.000000 0.000000 0.672217 -1.073980 -0.049874 0.000000 0.000000 0.000000 -0.000000 0.000000 0.000000 -1.061392 -0.676691 0.176284 -3.776111 -8.166956 -2.308218 -18.046839 2.901540 5.786288 0.000000 0.000000 0.000000 0.000000 0.000000 0.000000 -0.000000 0.000000 0.000000 0.070750 -0.862182 -0.024684 7.163664 -2.429620 0.853241 -4.514866 10.039171 -1.164338 0.000000 0.000000 0.000000 0.000000 0.000000 0.000000 -0.115962 1.412001 -15.143140 2.312315 -3.371359 0.073116 -7.937796 13.504596 5.967671 0.000000 0.000000 0.000000 -0.645961 -1.941950 -15.684100 -0.609977 3.950511 0.471988 2.017666 30.127360 -14.752161 0.000000 0.000000 0.000000
10.676897 84.764204 362.110574 -0.031147 -0.132066 15.319711 0.064933 0.119144 -15.319815 -0.000000 0.000000 0.000000 0.943194 -1.053361 -0.025440 0.000000 0.000000 0.000000 -0.000000 0.000000 0.000000 -1.088815 -0.917773 0.164918 -4.447147 -9.029977 -2.603213 -17.255571 1.754143 5.019729 0.000000 0.000000 0.000000 0.000000 0.000000 0.000000 -0.000000 0.000000 0.000000 0.229648 -0.996050 -0.072966 8.266835 -3.008723 1.127046 -3.470524 8.987055 -1.265131 0.000000 0.000000 0.000000 0.000000 0.000000 0.000000 -0.196703 1.157898 -15.260512 2.001247 -2.933685 0.058658 -9.519462 20.273916 7.224643 0.000000 0.000000 0.000000 0.279045 -1.052100 -15.382515 -2.174532 1.070182 -0.328533 4.376774 32.832373 -16.034213 0.000000 0.000000 0.000000
